<?xml version="1.0" encoding="iso-8859-1"?>
<!-- Generator: Adobe Illustrator 19.0.0, SVG Export Plug-In . SVG Version: 6.00 Build 0)  -->
<svg version="1.1" id="Capa_1" xmlns="http://www.w3.org/2000/svg" xmlns:xlink="http://www.w3.org/1999/xlink" x="0px" y="0px"
	 viewBox="0 0 511.999 511.999" style="enable-background:new 0 0 511.999 511.999;" xml:space="preserve">
<path style="fill:#E2E8ED;" d="M376.251,511.998H135.746c-2.761,0-5-2.239-5-5v-20.069c0-2.761,2.239-5,5-5H376.25
	c2.761,0,5,2.239,5,5v20.069C381.251,509.759,379.012,511.998,376.251,511.998z"/>
<path style="fill:#6C7782;" d="M225.654,69.098h-61.063V23.987C164.592,10.739,175.331,0,188.579,0h13.089
	c13.248,0,23.987,10.739,23.987,23.987v45.111H225.654z"/>
<g>
	<circle style="fill:#E2E8ED;" cx="195.049" cy="31.34" r="10.484"/>
	<path style="fill:#E2E8ED;" d="M376.251,99.167H135.746c-2.761,0-5-2.239-5-5V74.098c0-2.761,2.239-5,5-5H376.25
		c2.761,0,5,2.239,5,5v20.069C381.251,96.929,379.012,99.167,376.251,99.167z"/>
</g>
<g>
	<path style="fill:#CFDDE8;" d="M381.249,74.256V94.01c0,2.85-2.31,5.16-5.16,5.16h-67.59V69.096h67.59
		C378.939,69.096,381.249,71.406,381.249,74.256z"/>
	<path style="fill:#CFDDE8;" d="M381.249,487.086v19.753c0,2.85-2.31,5.16-5.16,5.16h-67.59v-30.074h67.59
		C378.939,481.926,381.249,484.237,381.249,487.086z"/>
</g>
<path style="fill:#DD4733;" d="M361.659,99.168h-92.29h-26.741h-92.29l-31.647,45.316c-0.647,0.926-0.994,2.029-0.994,3.158V217.8
	v145.497v70.157c0,1.13,0.347,2.232,0.994,3.158l31.647,45.317h92.29h26.741h92.29l31.647-45.317
	c0.647-0.926,0.994-2.029,0.994-3.158v-70.157V217.8v-70.157c0-1.13-0.347-2.232-0.994-3.158L361.659,99.168z"/>
<path style="fill:#D13D2A;" d="M394.303,147.645v285.814c0,1.125-0.351,2.229-1.001,3.158l-31.642,45.307h-53.161l31.653-45.307
	c0.65-0.929,0.991-2.033,0.991-3.158V147.645c0-1.135-0.341-2.24-0.991-3.158L308.499,99.17h53.161l31.642,45.317
	C393.952,145.405,394.303,146.509,394.303,147.645z"/>
<g>
	<path style="fill:#E2E8ED;" d="M168.924,145.567c0,0-25.801,58.734-11.352,162.1c0,0,16.513,92.138,11.352,126.824h63.983
		c0,0,13.42-37.814-7.935-126.789c-12.437-51.82-10.967-113.738,6.565-158.688c0.446-1.144,0.903-2.293,1.37-3.447L168.924,145.567
		L168.924,145.567z"/>
	<path style="fill:#E2E8ED;" d="M390.006,156.497H121.992c-4.142,0-7.5-3.358-7.5-7.5s3.358-7.5,7.5-7.5h268.014
		c4.143,0,7.5,3.358,7.5,7.5S394.149,156.497,390.006,156.497z"/>
	<path style="fill:#E2E8ED;" d="M390.006,436.45H325.5c-4.143,0-7.5-3.358-7.5-7.5s3.357-7.5,7.5-7.5h64.506
		c4.143,0,7.5,3.358,7.5,7.5S394.149,436.45,390.006,436.45z"/>
	<path style="fill:#E2E8ED;" d="M274,436.45H121.992c-4.142,0-7.5-3.358-7.5-7.5s3.358-7.5,7.5-7.5H274c4.143,0,7.5,3.358,7.5,7.5
		S278.143,436.45,274,436.45z"/>
</g>
<g>
</g>
<g>
</g>
<g>
</g>
<g>
</g>
<g>
</g>
<g>
</g>
<g>
</g>
<g>
</g>
<g>
</g>
<g>
</g>
<g>
</g>
<g>
</g>
<g>
</g>
<g>
</g>
<g>
</g>
</svg>
