<?xml version="1.0" encoding="iso-8859-1"?>
<!-- Generator: Adobe Illustrator 19.0.0, SVG Export Plug-In . SVG Version: 6.00 Build 0)  -->
<svg version="1.1" id="Layer_1" xmlns="http://www.w3.org/2000/svg" xmlns:xlink="http://www.w3.org/1999/xlink" x="0px" y="0px"
	 viewBox="0 0 512 512" style="enable-background:new 0 0 512 512;" xml:space="preserve">
<path style="fill:#F59F3F;" d="M464.14,89.066c-0.555-51.75-12.266-82.206-33.865-88.076c-21.602-5.874-47.116,14.469-73.788,58.819
	c-24.651,40.988-47.59,98.011-64.59,160.563s-26.08,123.342-25.567,171.169c0.555,51.75,12.266,82.206,33.865,88.076
	c2.431,0.661,4.91,0.989,7.436,0.989c19.919,0,42.681-20.449,66.352-59.807c24.651-40.988,47.59-98.011,64.59-160.563
	S464.653,136.894,464.14,89.066z"/>
<path style="fill:#F2821C;" d="M282.328,391.54c-0.513-47.827,8.567-108.616,25.567-171.169s39.939-119.575,64.59-160.563
	c20.499-34.085,40.312-53.971,58.193-58.693c-0.135-0.039-0.267-0.089-0.403-0.126c-21.602-5.874-47.116,14.469-73.788,58.819
	c-24.651,40.988-47.59,98.011-64.59,160.563s-26.08,123.342-25.567,171.169c0.555,51.75,12.266,82.206,33.865,88.076
	c2.431,0.661,4.91,0.989,7.436,0.989c2.672,0,5.397-0.38,8.167-1.113C294.454,473.356,282.88,442.969,282.328,391.54z"/>
<g>
	<path style="fill:#E57712;" d="M400.569,133.557c3.448,0,6.631-2.247,7.664-5.72c1.26-4.235-1.151-8.689-5.386-9.949
		l-66.695-19.846c-2.268,4.777-4.507,9.681-6.716,14.695l68.848,20.487C399.045,133.449,399.813,133.557,400.569,133.557z"/>
	<path style="fill:#E57712;" d="M389.407,205.133c3.476,0,6.675-2.283,7.684-5.791c1.222-4.246-1.23-8.678-5.477-9.899l-82.84-23.83
		c-1.733,5-3.434,10.061-5.096,15.182l83.513,24.023C387.93,205.032,388.674,205.133,389.407,205.133z"/>
</g>
<g>
	<circle style="fill:#F2821C;" cx="416.159" cy="72.008" r="8"/>
	<circle style="fill:#F2821C;" cx="432.158" cy="112.007" r="8"/>
	<circle style="fill:#F2821C;" cx="400.159" cy="160.006" r="8"/>
	<circle style="fill:#F2821C;" cx="416.159" cy="200.005" r="8"/>
</g>
<path style="fill:#00B5B8;" d="M284.656,105.543c-9.432-6.399-21.656-7.299-31.903-2.347c-10.247,4.951-17.14,15.087-17.989,26.452
	c-0.213,2.856,1.117,5.608,3.487,7.216c5.39,3.656,11.689,5.517,18.013,5.516c4.743,0,9.5-1.047,13.891-3.169
	c10.248-4.951,17.14-15.088,17.989-26.453C288.356,109.902,287.026,107.149,284.656,105.543z"/>
<path style="fill:#787485;" d="M250.059,191.627c-2.974,0-5.829-1.665-7.209-4.521l-31.322-64.827
	c-1.922-3.979-0.255-8.762,3.723-10.684c3.979-1.923,8.761-0.255,10.684,3.723l31.322,64.827c1.922,3.979,0.255,8.762-3.723,10.684
	C252.412,191.37,251.227,191.627,250.059,191.627z"/>
<path style="fill:#E6608D;" d="M369.804,210.811c-14.287-29.569-44.782-59.907-75.423-60.679
	c-13.064-0.333-31.405,4.587-46.532,28.931c-28.472-3.278-43.718,8.028-51.584,18.474c-18.439,24.485-13.623,67.231,0.665,96.802
	c10.716,22.178,29.935,36.141,55.582,40.379c5.245,0.867,10.657,1.293,16.146,1.292c16.679,0,34.056-3.936,49.513-11.404
	c20.543-9.926,38.304-26.384,48.727-45.155C379.514,256.725,380.519,232.989,369.804,210.811z"/>
<path style="fill:#D4506F;" d="M331.656,288.006c-5.489,0-10.901-0.426-16.146-1.292c-25.645-4.238-44.866-18.201-55.582-40.379
	c-9.57-19.805-14.877-45.517-11.807-67.699c-0.091,0.145-0.183,0.281-0.274,0.427c-28.472-3.278-43.718,8.028-51.584,18.474
	c-18.439,24.485-13.623,67.231,0.665,96.802c10.716,22.178,29.935,36.141,55.582,40.379c5.245,0.867,10.657,1.293,16.146,1.292
	c16.679,0,34.056-3.936,49.513-11.404c19.251-9.301,36.055-24.338,46.671-41.638C353.976,286.281,342.665,288.006,331.656,288.006z"
	/>
<path style="fill:#E1E0E4;" d="M459.738,216.853c-2.711-1.356-5.955-1.063-8.377,0.755l-27.199,20.399l-27.199-20.399
	c-2.844-2.134-6.756-2.134-9.6,0l-27.199,20.399l-27.199-20.399c-2.844-2.134-6.756-2.134-9.6,0l-27.199,20.399l-27.199-20.399
	c-2.844-2.134-6.756-2.134-9.6,0l-27.199,20.399l-27.199-20.399c-2.844-2.134-6.756-2.134-9.6,0l-27.199,20.399l-27.199-20.399
	c-2.424-1.819-5.668-2.111-8.377-0.755c-2.71,1.355-4.422,4.125-4.422,7.155v255.994c0,4.418,3.582,8,8,8h319.992
	c4.418,0,8-3.582,8-8V224.008C464.16,220.978,462.448,218.208,459.738,216.853z"/>
<path style="fill:#D2D1D6;" d="M259.366,217.608l-27.199,20.399l-27.199-20.399c-2.844-2.134-6.756-2.134-9.6,0l-27.199,20.399
	l-27.199-20.399c-2.424-1.819-5.668-2.111-8.377-0.755c-2.71,1.355-4.422,4.125-4.422,7.155v255.994c0,4.418,3.582,8,8,8h127.663
	V216.034C262.255,216.1,260.694,216.612,259.366,217.608z"/>
<g>
	<path style="fill:#B4B2BB;" d="M312.164,328.005h-55.999c-4.418,0-8-3.582-8-8c0-4.418,3.582-8,8-8h55.999c4.418,0,8,3.582,8,8
		C320.164,324.423,316.582,328.005,312.164,328.005z"/>
	<path style="fill:#B4B2BB;" d="M360.163,376.004H256.166c-4.418,0-8-3.582-8-8c0-4.418,3.582-8,8-8h103.997c4.418,0,8,3.582,8,8
		C368.163,372.422,364.581,376.004,360.163,376.004z"/>
	<path style="fill:#B4B2BB;" d="M360.163,424.002H256.166c-4.418,0-8-3.582-8-8c0-4.418,3.582-8,8-8h103.997c4.418,0,8,3.582,8,8
		C368.163,420.421,364.581,424.002,360.163,424.002z"/>
</g>
<path style="fill:#68DEC8;" d="M210.199,160.357l-42.031-36.026v-44.32c0-4.418-3.582-8-8-8h-47.999c-4.418,0-8,3.582-8,8v44.32
	l-42.03,36.026c-8.877,7.608-13.969,18.678-13.969,30.369v281.275C48.171,494.057,66.114,512,88.17,512h95.998
	c22.055,0,39.999-17.944,39.999-39.999V190.726C224.166,179.035,219.076,167.965,210.199,160.357z"/>
<path style="fill:#38C7C2;" d="M72.17,472.001V190.726c0-11.692,5.091-22.761,13.969-30.369l42.03-36.026v-44.32
	c0-4.418,3.582-8,8-8h-23.999c-4.418,0-8,3.582-8,8v44.32l-42.03,36.026c-8.877,7.608-13.969,18.678-13.969,30.369v281.275
	C48.171,494.057,66.114,512,88.17,512h23.999C90.114,512,72.17,494.057,72.17,472.001z"/>
<path style="fill:#878493;" d="M168.168,24.013H104.17c-4.418,0-8,3.582-8,8v47.999c0,4.418,3.582,8,8,8h63.998c4.418,0,8-3.582,8-8
	V32.012C176.168,27.595,172.586,24.013,168.168,24.013z"/>
<path style="fill:#787485;" d="M112.169,80.011V32.012c0-4.418,3.582-8,8-8h-16c-4.418,0-8,3.582-8,8v47.999c0,4.418,3.582,8,8,8h16
	C115.75,88.011,112.169,84.429,112.169,80.011z"/>
<path style="fill:#FCDE76;" d="M176.168,240.007H48.171v191.995h127.997c4.418,0,8-3.582,8-8V248.007
	C184.167,243.589,180.586,240.007,176.168,240.007z"/>
<rect x="48.168" y="240.004" style="fill:#FCCF6F;" width="23.999" height="191.995"/>
<path style="fill:#F59F3F;" d="M88.17,296.006c-15.292,0-29.324,3.357-40.332,8.949v62.1c11.008,5.592,25.04,8.949,40.332,8.949
	c35.345,0,63.998-17.909,63.998-39.999C152.168,313.914,123.515,296.006,88.17,296.006z"/>
<path style="fill:#F2821C;" d="M47.838,304.954v62.1c6.944,3.528,15.093,6.163,23.999,7.63v-77.359
	C62.93,298.792,54.781,301.428,47.838,304.954z"/>
<path style="fill:#696578;" d="M176.168,88.011H96.17c-4.418,0-8-3.582-8-8c0-4.418,3.582-8,8-8h79.998c4.418,0,8,3.582,8,8
	C184.167,84.429,180.586,88.011,176.168,88.011z"/>
<g>
</g>
<g>
</g>
<g>
</g>
<g>
</g>
<g>
</g>
<g>
</g>
<g>
</g>
<g>
</g>
<g>
</g>
<g>
</g>
<g>
</g>
<g>
</g>
<g>
</g>
<g>
</g>
<g>
</g>
</svg>
