<?xml version="1.0"?>
<svg xmlns="http://www.w3.org/2000/svg" xmlns:xlink="http://www.w3.org/1999/xlink" version="1.1" id="Layer_1" x="0px" y="0px" viewBox="0 0 512 512" style="enable-background:new 0 0 512 512;" xml:space="preserve" width="512px" height="512px" class=""><g><g>
	<g>
		<path d="M356.546,0H59.666v512h392.667V95.787L356.546,0z M350,35.88l66.454,66.453H350V35.88z M422.333,482H89.666V30H320    v102.333h102.333V482z" data-original="#000000" class="active-path" data-old_color="#ffffff" fill="#ffffff"/>
	</g>
</g><g>
	<g>
		<path d="M387.106,243.543l-86.843-18.324L256,148.289l-44.263,76.93l-86.843,18.324l59.487,65.869l-9.409,88.254L256,361.446    l81.028,36.22l-9.409-88.254L387.106,243.543z M256,328.585L210.331,349l5.304-49.743l-33.529-37.125l48.947-10.328L256,208.444    l24.947,43.36l48.947,10.328l-33.529,37.125L301.669,349L256,328.585z" data-original="#000000" class="active-path" data-old_color="#ffffff" fill="#ffffff"/>
	</g>
</g></g> </svg>
